<svg width="310" height="76" viewBox="0 0 310 76" fill="none" xmlns="http://www.w3.org/2000/svg">
<g clip-path="url(#clip0_123_13707)">
<path d="M76.3081 56.973C76.1088 56.4528 75.9032 56.0023 75.7662 55.5328C73.779 48.8141 68.0356 44.3032 60.5792 44.2651C56.7793 44.2461 52.9795 44.2397 49.1796 44.2651C46.4449 44.2841 45.604 45.1914 45.5853 47.9576C45.5728 49.6642 45.5417 51.3709 45.523 53.0775C45.5043 54.6636 46.6318 55.9325 48.0957 55.9833C49.7963 56.0404 50.8802 55.0697 50.9923 53.344C51.0422 52.5573 51.0172 51.7642 51.0172 50.9712C51.0172 50.2479 51.3474 49.9307 52.07 49.937C55.4587 49.9561 58.8599 49.8482 62.2424 49.9941C65.8367 50.1528 69.3625 53.344 70.4401 57.0555C71.9352 62.1945 69.8483 66.7244 65.8242 69.0211C64.6594 69.6873 63.2329 70.1187 61.8998 70.1885C58.7229 70.3598 55.5272 70.2265 52.3378 70.2773C51.2976 70.2963 50.9674 69.8586 50.9923 68.8688C51.0172 67.9996 51.011 67.1114 50.8553 66.2613C50.6435 65.0939 49.9271 64.3389 48.6999 64.2247C47.2361 64.0915 46.3328 64.5483 45.8594 65.8362C45.5791 66.5975 45.4047 67.4286 45.3611 68.2407C45.2801 69.6492 45.3361 71.0704 45.3424 72.4852C45.3548 74.9658 46.2207 75.9112 48.6501 75.9365C52.6929 75.9746 56.7482 76.0761 60.7847 75.8985C62.8279 75.8096 64.9521 75.4417 66.8458 74.693C71.2686 72.9483 74.2338 69.6492 75.6665 64.9924C75.816 64.5166 75.9032 63.99 76.1648 63.5903C76.4202 63.2096 76.8314 62.7909 77.2425 62.6894C81.304 61.7313 85.0042 60.0247 87.9008 56.9159C92.7285 51.7198 94.7779 45.553 93.2704 38.4726C91.4888 30.1043 86.4182 24.756 78.2205 22.7448C76.1212 22.2309 73.86 22.307 71.6735 22.288C70.5336 22.2753 70.0601 21.9264 69.9293 20.7907C69.0635 13.5263 65.4318 7.98763 59.5327 3.96526C56.4741 1.88428 53.0729 0.609051 49.3852 0.27914C47.697 0.126874 45.9715 -0.114215 44.3083 0.0888074C38.7456 0.761318 33.9241 3.18489 30.1367 7.37856C28.3676 9.33265 26.9909 11.6928 25.6329 13.9831C25.091 14.8967 24.6238 15.2837 23.5835 15.3028C14.6445 15.4677 7.74868 19.3759 3.09541 27.1859C1.42596 29.9838 0.560094 33.0482 0.192567 36.3473C-0.791659 45.1153 2.26692 52.1512 8.74536 57.728C12.0157 60.5449 15.8966 62.131 20.1699 62.7528C20.6433 62.8226 21.179 63.3809 21.4531 63.8567C23.5212 67.454 26.8726 68.9577 30.7908 67.9743C33.594 67.27 36.1729 64.377 36.4968 61.5918C37.0014 57.2902 35.1513 54.4162 32.4166 52.9824C28.2991 50.8189 23.9199 52.1639 21.559 56.2434C21.1416 56.9603 20.718 57.1824 19.8771 56.9921C13.6229 55.6153 9.21879 51.9165 6.74577 45.9654C5.13861 42.0953 5.02649 38.0285 6.19136 33.9998C7.92933 27.9916 11.8538 24.001 17.5723 21.8819C20.2446 20.8922 23.0416 20.6257 25.8946 21.0572C28.2119 21.4061 29.1026 20.7844 29.7879 18.5131C31.0586 14.2877 33.5254 10.9759 37.1758 8.60938C41.5674 5.76073 46.2705 4.99306 51.3474 6.36345C58.0439 8.17162 62.1552 12.6508 64.0925 19.2236C64.6594 21.1587 64.6407 23.3348 64.5535 25.3841C64.4538 27.8838 66.3039 29.3874 68.6461 28.6007C74.1092 26.7799 79.0365 27.6998 83.4718 31.5826C90.0312 37.3243 89.863 48.6174 82.4938 54.3655C80.9987 55.5328 78.6565 56.567 76.3206 56.9794L76.3081 56.973ZM26.1749 60.1389C26.1749 58.6606 27.3024 57.4869 28.6853 57.5186C29.8751 57.544 31.0836 58.8129 31.096 60.0564C31.1085 61.4839 29.9436 62.7084 28.5669 62.7084C27.184 62.7084 26.1749 61.6235 26.1749 60.1452V60.1389Z" fill="#4A4945"/>
<path d="M28.6414 70.1315C33.6712 70.1315 37.7486 65.9786 37.7486 60.8559C37.7486 55.7331 33.6712 51.5803 28.6414 51.5803C23.6116 51.5803 19.5342 55.7331 19.5342 60.8559C19.5342 65.9786 23.6116 70.1315 28.6414 70.1315Z" fill="#FBB03B"/>
<path d="M102.11 57.3029V12.9045H110.476C116.668 12.9045 121.035 13.2218 123.564 13.8626C126.093 14.497 128.311 15.5629 130.217 17.0601C132.715 19.0206 134.615 21.5266 135.904 24.5783C137.194 27.63 137.841 31.1511 137.841 35.1291C137.841 39.1071 137.2 42.5965 135.923 45.6355C134.64 48.6808 132.74 51.1805 130.223 53.141C128.317 54.6382 126.149 55.7041 123.72 56.3386C121.29 56.973 117.503 57.2966 112.358 57.2966H102.117L102.11 57.3029ZM107.349 52.3289H110.657C116.014 52.3289 119.727 52.0941 121.795 51.6183C123.857 51.1425 125.576 50.3304 126.946 49.1757C128.734 47.6594 130.092 45.7053 131.027 43.3071C131.961 40.9089 132.428 38.1681 132.428 35.072C132.428 31.9759 131.967 29.2224 131.045 26.8686C130.123 24.5149 128.759 22.5671 126.953 21.0318C125.582 19.858 123.838 19.0269 121.726 18.5321C119.615 18.0372 115.927 17.7898 110.663 17.7898H107.355V52.3289H107.349Z" fill="#333333"/>
<path d="M144.986 16.1782C144.986 15.2265 145.316 14.4144 145.983 13.7356C146.65 13.0567 147.459 12.7205 148.412 12.7205C149.366 12.7205 150.144 13.0631 150.811 13.7483C151.477 14.4335 151.807 15.2646 151.807 16.2353C151.807 17.206 151.477 17.9927 150.823 18.6589C150.169 19.325 149.366 19.6613 148.412 19.6613C147.459 19.6613 146.65 19.325 145.983 18.6589C145.316 17.9927 144.986 17.1616 144.986 16.1718V16.1782ZM146.089 57.3028V29.5522H150.792V57.3028H146.089Z" fill="#333333"/>
<path d="M185.987 29.5522V56.8143C185.987 59.8279 185.788 61.9723 185.389 63.2412C184.991 64.5164 184.337 65.6584 183.421 66.6672C182.15 68.0629 180.599 69.1034 178.761 69.7886C176.924 70.4738 174.818 70.8164 172.432 70.8164C168.302 70.8164 165.082 69.8584 162.771 67.9361C160.46 66.0137 159.251 63.2983 159.152 59.7771H164.39V60.1387C164.39 62.2197 165.094 63.8312 166.502 64.9605C167.91 66.0898 169.903 66.6608 172.488 66.6608C174.357 66.6608 175.946 66.3499 177.266 65.7345C178.587 65.1191 179.596 64.2055 180.288 62.9874C180.705 62.3022 181.004 61.5028 181.178 60.5892C181.359 59.6819 181.446 58.375 181.446 56.6747V52.0052C180.393 53.9846 179.017 55.5073 177.31 56.5668C175.603 57.6263 173.685 58.1593 171.567 58.1593C167.655 58.1593 164.503 56.8079 162.111 54.0988C159.718 51.3898 158.522 47.7925 158.522 43.3006C158.522 38.8087 159.681 35.1797 162.005 32.5214C164.328 29.8631 167.43 28.5308 171.324 28.5308C173.585 28.5308 175.572 29.051 177.279 30.0915C178.986 31.132 180.337 32.6673 181.328 34.6849V29.5268H185.975L185.987 29.5522ZM181.459 43.5036C181.459 40.3885 180.624 37.8825 178.954 35.9855C177.285 34.0885 175.092 33.1368 172.376 33.1368C169.66 33.1368 167.393 34.0187 165.823 35.7761C164.253 37.5335 163.469 39.9888 163.469 43.1483C163.469 46.5045 164.26 49.0931 165.836 50.9139C167.412 52.7348 169.654 53.642 172.551 53.642C175.447 53.642 177.509 52.7475 179.085 50.9583C180.661 49.1692 181.452 46.6885 181.452 43.51L181.459 43.5036Z" fill="#333333"/>
<path d="M194.565 16.1782C194.565 15.2265 194.896 14.4144 195.562 13.7356C196.229 13.0567 197.038 12.7205 197.992 12.7205C198.945 12.7205 199.723 13.0631 200.39 13.7483C201.056 14.4335 201.386 15.2646 201.386 16.2353C201.386 17.206 201.056 17.9927 200.402 18.6589C199.748 19.325 198.945 19.6613 197.992 19.6613C197.038 19.6613 196.229 19.325 195.562 18.6589C194.896 17.9927 194.565 17.1616 194.565 16.1718V16.1782ZM195.668 57.3028V29.5522H200.371V57.3028H195.668Z" fill="#333333"/>
<path d="M210.674 57.3029V12.9045H219.04C225.232 12.9045 229.598 13.2218 232.127 13.8626C234.657 14.497 236.874 15.5629 238.78 17.0601C241.278 19.0206 243.178 21.5266 244.468 24.5783C245.757 27.63 246.405 31.1511 246.405 35.1291C246.405 39.1071 245.763 42.5965 244.486 45.6355C243.203 48.6808 241.303 51.1805 238.787 53.141C236.88 54.6382 234.713 55.7041 232.283 56.3386C229.854 56.973 226.066 57.2966 220.921 57.2966H210.68L210.674 57.3029ZM215.913 52.3289H219.22C224.578 52.3289 228.29 52.0941 230.358 51.6183C232.42 51.1425 234.14 50.3304 235.51 49.1757C237.298 47.6594 238.656 45.7053 239.59 43.3071C240.525 40.9089 240.992 38.1681 240.992 35.072C240.992 31.9759 240.531 29.2224 239.609 26.8686C238.687 24.5149 237.323 22.5671 235.516 21.0318C234.146 19.858 232.402 19.0269 230.29 18.5321C228.178 18.0372 224.49 17.7898 219.227 17.7898H215.919V52.3289H215.913Z" fill="#333333"/>
<path d="M252.205 43.5036C252.205 41.4607 252.573 39.5384 253.308 37.7239C254.043 35.9157 255.114 34.3042 256.522 32.8894C257.93 31.4746 259.531 30.396 261.319 29.6601C263.106 28.9241 265.012 28.5498 267.037 28.5498C269.062 28.5498 270.905 28.9241 272.681 29.6728C274.456 30.4214 276.069 31.5127 277.521 32.9465C278.929 34.3423 280 35.9411 280.735 37.7556C281.47 39.5637 281.838 41.4798 281.838 43.5036C281.838 45.5275 281.47 47.4308 280.735 49.22C280 51.0091 278.929 52.6016 277.521 53.9973C276.069 55.4502 274.45 56.5668 272.65 57.3345C270.856 58.1022 268.981 58.4892 267.037 58.4892C265.093 58.4892 263.131 58.1085 261.337 57.3535C259.543 56.5986 257.936 55.5073 256.528 54.0925C255.12 52.6396 254.049 51.0218 253.314 49.239C252.579 47.4626 252.211 45.5529 252.211 43.51L252.205 43.5036ZM257.145 43.5036C257.145 46.4348 258.11 48.9154 260.035 50.952C261.96 52.9822 264.296 53.9973 267.031 53.9973C269.765 53.9973 272.064 52.9822 273.97 50.952C275.876 48.9218 276.829 46.4411 276.829 43.5036C276.829 40.5662 275.876 38.0918 273.97 36.0616C272.064 34.0314 269.753 33.0163 267.031 33.0163C264.309 33.0163 261.935 34.0314 260.017 36.0616C258.098 38.0918 257.145 40.5789 257.145 43.5036Z" fill="#333333"/>
<path d="M310 50.7236V56.2433C308.766 56.9919 307.383 57.5502 305.845 57.9245C304.306 58.2989 302.643 58.4829 300.855 58.4829C296.644 58.4829 293.255 57.1251 290.689 54.4034C288.116 51.6816 286.833 48.1097 286.833 43.6813C286.833 39.2529 288.16 35.5985 290.826 32.7815C293.492 29.9646 296.887 28.5498 301.042 28.5498C302.549 28.5498 304.026 28.7148 305.465 29.032C306.904 29.3555 308.262 29.8314 309.526 30.4595V35.5541C308.336 34.7674 307.103 34.1646 305.832 33.7522C304.562 33.3399 303.272 33.1305 301.964 33.1305C298.905 33.1305 296.457 34.1075 294.607 36.0553C292.763 38.0094 291.835 40.5979 291.835 43.8335C291.835 46.6822 292.763 49.0677 294.62 50.9901C296.476 52.9124 298.806 53.8705 301.603 53.8705C303.01 53.8705 304.393 53.6167 305.739 53.1091C307.091 52.6016 308.511 51.8085 310 50.7109V50.7236Z" fill="#333333"/>
</g>
<defs>
<clipPath id="clip0_123_13707">
<rect width="310" height="76" fill="white"/>
</clipPath>
</defs>
</svg>
